<svg width="22" height="22" viewBox="0 0 22 22" fill="none" xmlns="http://www.w3.org/2000/svg">
<path d="M16.2946 0.758789H6.25535C3.17521 0.758789 0.654297 3.33296 0.654297 6.47523V16.2837C0.654297 19.426 3.17521 22.0002 6.25535 22.0002H16.2946C19.3748 22.0002 21.8957 19.426 21.8957 16.2837V6.47523C21.8957 3.33296 19.3748 0.758789 16.2946 0.758789ZM19.9961 16.1417C19.9961 18.3164 18.2563 20.1006 16.1171 20.1006H6.43287C4.30252 20.1006 2.55386 18.3164 2.55386 16.1417V6.61726C2.55386 4.44252 4.29365 2.65835 6.43287 2.65835H16.1171C18.2474 2.65835 19.9961 4.44252 19.9961 6.61726V16.1417Z" fill="#fff"/>
<path d="M11.2694 5.9248C8.32243 5.9248 5.92578 8.36583 5.92578 11.375C5.92578 14.3841 8.31355 16.8251 11.2694 16.8251C14.2253 16.8251 16.613 14.3841 16.613 11.375C16.613 8.36583 14.2164 5.9248 11.2694 5.9248ZM11.2694 14.8989C9.36985 14.8989 7.82534 13.3278 7.82534 11.3838C7.82534 9.43988 9.36985 7.86875 11.2694 7.86875C13.169 7.86875 14.7135 9.43988 14.7135 11.3838C14.7135 13.3189 13.1779 14.8989 11.2694 14.8989Z" fill="#fff"/>
<path d="M16.8986 6.86512C17.5653 6.86512 18.1058 6.31271 18.1058 5.63129C18.1058 4.94986 17.5653 4.39746 16.8986 4.39746C16.2319 4.39746 15.6914 4.94986 15.6914 5.63129C15.6914 6.31271 16.2319 6.86512 16.8986 6.86512Z" fill="#fff"/>
</svg>
