<svg width="25" height="21" viewBox="0 0 25 21" fill="none" xmlns="http://www.w3.org/2000/svg">
<path d="M23.433 0.892705C22.482 1.4796 21.4278 1.91391 20.3048 2.14867C19.4111 1.1392 18.1277 0.51709 16.7183 0.51709C14.0027 0.51709 11.7912 2.82947 11.7912 5.6818C11.7912 6.09262 11.837 6.47998 11.9172 6.85559C7.82654 6.64431 4.20566 4.59016 1.77646 1.45613C1.35249 2.21909 1.11186 3.11118 1.11186 4.06196C1.11186 5.85786 1.98271 7.44249 3.30044 8.36979C2.49834 8.34631 1.73062 8.11155 1.06603 7.7242V7.78289C1.06603 10.2831 2.76189 12.3842 5.01921 12.8537C4.6067 12.9711 4.17128 13.0415 3.7244 13.0415C3.40356 13.0415 3.09418 13.0063 2.79626 12.9476C3.42648 15.0017 5.23692 16.4925 7.39112 16.5394C5.70672 17.9245 3.5869 18.7579 1.27228 18.7579C0.871235 18.7579 0.481646 18.7344 0.103516 18.6875C2.28063 20.1547 4.87025 21.0116 7.65466 21.0116C16.7069 21.0116 21.6569 13.1354 21.6569 6.30391C21.6569 6.08089 21.6569 5.85786 21.6455 5.63484C22.608 4.90709 23.4445 3.99153 24.0976 2.95859C23.2153 3.36942 22.2642 3.65113 21.2674 3.76851C22.2872 3.11118 23.0663 2.10172 23.433 0.892705Z" fill="#fff"/>
</svg>
